<mxfile>
  <diagram>
    <mxGraphModel dx="4000" dy="4000" grid="1" gridSize="10" guides="1" tooltips="1" connect="1" arrows="1" fold="1" pageScale="1" pageWidth="4000" pageHeight="4000" math="0" shadow="0">
      <root>
        <mxCell id="0"/>
        <mxCell id="1" parent="0"/>
        <object label="Webex EQ CODEC, CS-CODEC-EQ-NR++" type="matrix" id="2626767970516178269">
          <mxCell id="749067313846223495" value="Webex EQ CODEC, CS-CODEC-EQ-NR++" style="rounded=0;whiteSpace=wrap;html=1;" parent="1" connectable="" edge="" vertex="1" source="" target="">
            <mxGeometry x="1900" y="3400" width="200" height="1400" relative="" as="geometry"/>
          </mxCell>
        </object>
        <object label="Webex EQ CODEC, CS-CODEC-EQ-NR++" type="DTP" id="6453054154161341779">
          <mxCell id="6230785945119000892" value="Webex EQ CODEC, CS-CODEC-EQ-NR++" style="rounded=0;whiteSpace=wrap;html=1;" parent="1" connectable="" edge="" vertex="1" source="" target="">
            <mxGeometry x="1500" y="3400" width="160" height="90" relative="" as="geometry"/>
          </mxCell>
        </object>
        <object label="Webex EQ CODEC, CS-CODEC-EQ-NR++" type="DTP" id="5489310074821358523">
          <mxCell id="517959945590614152" value="Webex EQ CODEC, CS-CODEC-EQ-NR++" style="rounded=0;whiteSpace=wrap;html=1;" parent="1" connectable="" edge="" vertex="1" source="" target="">
            <mxGeometry x="1500" y="3540" width="160" height="90" relative="" as="geometry"/>
          </mxCell>
        </object>
        <object label="DA HD 4K Plus, 60-1607-01" type="DTP" id="9367288083738167931">
          <mxCell id="364582050938913975" value="DA HD 4K Plus, 60-1607-01" style="rounded=0;whiteSpace=wrap;html=1;" parent="1" connectable="" edge="" vertex="1" source="" target="">
            <mxGeometry x="1500" y="3680" width="160" height="90" relative="" as="geometry"/>
          </mxCell>
        </object>
        <object label="232-ATSC 4K HDTV, 5114-001" type="DTP" id="3952923632698953057">
          <mxCell id="173690861239911414" value="232-ATSC 4K HDTV, 5114-001" style="rounded=0;whiteSpace=wrap;html=1;" parent="1" connectable="" edge="" vertex="1" source="" target="">
            <mxGeometry x="1500" y="3820" width="160" height="90" relative="" as="geometry"/>
          </mxCell>
        </object>
        <object label="DTP 4K 230 Tx, 60-1271-12" type="DTP" id="444004532478100007">
          <mxCell id="6942587404655598073" value="DTP 4K 230 Tx, 60-1271-12" style="rounded=0;whiteSpace=wrap;html=1;" parent="1" connectable="" edge="" vertex="1" source="" target="">
            <mxGeometry x="1500" y="4380" width="160" height="90" relative="" as="geometry"/>
          </mxCell>
        </object>
        <object label="DTP 4K 230 Tx, 60-1271-12" type="DTP" id="2055846577405760931">
          <mxCell id="8133080206130252062" value="DTP 4K 230 Tx, 60-1271-12" style="rounded=0;whiteSpace=wrap;html=1;" parent="1" connectable="" edge="" vertex="1" source="" target="">
            <mxGeometry x="1500" y="4520" width="160" height="90" relative="" as="geometry"/>
          </mxCell>
        </object>
        <object label="DTP 4K 230 Tx, 60-1271-12" type="DTP" id="3347236095578603444">
          <mxCell id="5978945833307746109" value="DTP 4K 230 Tx, 60-1271-12" style="rounded=0;whiteSpace=wrap;html=1;" parent="1" connectable="" edge="" vertex="1" source="" target="">
            <mxGeometry x="1500" y="4660" width="160" height="90" relative="" as="geometry"/>
          </mxCell>
        </object>
        <object label="DTP 4K 230 Tx, 60-1271-12" type="DTP" id="2680000456701373524">
          <mxCell id="7558669970492384593" value="DTP 4K 230 Tx, 60-1271-12" style="rounded=0;whiteSpace=wrap;html=1;" parent="1" connectable="" edge="" vertex="1" source="" target="">
            <mxGeometry x="1500" y="4800" width="160" height="90" relative="" as="geometry"/>
          </mxCell>
        </object>
        <object label="TEST" type="DTP" id="3101993035293847711">
          <mxCell id="7095275652460891691" value="TEST" style="rounded=0;whiteSpace=wrap;html=1;" parent="1" connectable="" edge="" vertex="1" source="" target="">
            <mxGeometry x="1100" y="3400" width="160" height="90" relative="" as="geometry"/>
          </mxCell>
        </object>
        <object label="OneLink Bridge" type="DTP" id="4752883047957049596">
          <mxCell id="232134520726639719" value="OneLink Bridge" style="rounded=0;whiteSpace=wrap;html=1;" parent="1" connectable="" edge="" vertex="1" source="" target="">
            <mxGeometry x="1100" y="3680" width="160" height="90" relative="" as="geometry"/>
          </mxCell>
        </object>
        <object label="BYOD" type="DTP" id="759028882545164425">
          <mxCell id="5114620000757995748" value="BYOD" style="rounded=0;whiteSpace=wrap;html=1;" parent="1" connectable="" edge="" vertex="1" source="" target="">
            <mxGeometry x="1100" y="4520" width="160" height="90" relative="" as="geometry"/>
          </mxCell>
        </object>
        <object label="BYOD" type="DTP" id="5234602272814228785">
          <mxCell id="145123906144408980" value="BYOD" style="rounded=0;whiteSpace=wrap;html=1;" parent="1" connectable="" edge="" vertex="1" source="" target="">
            <mxGeometry x="1100" y="4660" width="160" height="90" relative="" as="geometry"/>
          </mxCell>
        </object>
        <object label="BYOD" type="DTP" id="9594158057715581710">
          <mxCell id="1997272457107929494" value="BYOD" style="rounded=0;whiteSpace=wrap;html=1;" parent="1" connectable="" edge="" vertex="1" source="" target="">
            <mxGeometry x="1100" y="4800" width="160" height="90" relative="" as="geometry"/>
          </mxCell>
        </object>
        <object label="BYOD" type="DTP" id="8970307996753324328">
          <mxCell id="9245689046622015666" value="BYOD" style="rounded=0;whiteSpace=wrap;html=1;" parent="1" connectable="" edge="" vertex="1" source="" target="">
            <mxGeometry x="1100" y="4940" width="160" height="90" relative="" as="geometry"/>
          </mxCell>
        </object>
        <object label="Vaddio Roboshot 12E, 999-99600-100" type="DTP" id="7726933352635653404">
          <mxCell id="2527929522246650270" value="Vaddio Roboshot 12E, 999-99600-100" style="rounded=0;whiteSpace=wrap;html=1;" parent="1" connectable="" edge="" vertex="1" source="" target="">
            <mxGeometry x="700" y="3400" width="160" height="90" relative="" as="geometry"/>
          </mxCell>
        </object>
        <object label="Webex EQ CODEC, CS-CODEC-EQ-NR++" type="DTP" id="7112501504628628873">
          <mxCell id="5140912400951728075" value="Webex EQ CODEC, CS-CODEC-EQ-NR++" style="rounded=0;whiteSpace=wrap;html=1;" parent="1" connectable="" edge="" vertex="1" source="" target="">
            <mxGeometry x="2300" y="3400" width="160" height="90" relative="" as="geometry"/>
          </mxCell>
        </object>
        <object label="Webex EQ CODEC, CS-CODEC-EQ-NR++" type="DTP" id="306766532487851887">
          <mxCell id="5318834471800855957" value="Webex EQ CODEC, CS-CODEC-EQ-NR++" style="rounded=0;whiteSpace=wrap;html=1;" parent="1" connectable="" edge="" vertex="1" source="" target="">
            <mxGeometry x="2300" y="3540" width="160" height="90" relative="" as="geometry"/>
          </mxCell>
        </object>
        <object label="DA HD 4K Plus, 60-1607-01" type="DTP" id="6602770953246726343">
          <mxCell id="9654169480825569588" value="DA HD 4K Plus, 60-1607-01" style="rounded=0;whiteSpace=wrap;html=1;" parent="1" connectable="" edge="" vertex="1" source="" target="">
            <mxGeometry x="2300" y="3680" width="160" height="90" relative="" as="geometry"/>
          </mxCell>
        </object>
        <object label="232-ATSC 4K HDTV, 5114-001" type="DTP" id="6961324639202139914">
          <mxCell id="4052467962452627734" value="232-ATSC 4K HDTV, 5114-001" style="rounded=0;whiteSpace=wrap;html=1;" parent="1" connectable="" edge="" vertex="1" source="" target="">
            <mxGeometry x="2300" y="3820" width="160" height="90" relative="" as="geometry"/>
          </mxCell>
        </object>
        <object label="Test" type="DTP" id="653430018188667316">
          <mxCell id="1846619807028253226" value="Test" style="rounded=0;whiteSpace=wrap;html=1;" parent="1" connectable="" edge="" vertex="1" source="" target="">
            <mxGeometry x="2300" y="3960" width="160" height="90" relative="" as="geometry"/>
          </mxCell>
        </object>
        <object label="DTP 4K 230 Tx, 60-1271-12" type="DTP" id="743196400710525130">
          <mxCell id="6914630239099580534" value="DTP 4K 230 Tx, 60-1271-12" style="rounded=0;whiteSpace=wrap;html=1;" parent="1" connectable="" edge="" vertex="1" source="" target="">
            <mxGeometry x="2300" y="4240" width="160" height="90" relative="" as="geometry"/>
          </mxCell>
        </object>
        <object label="DTP 4K 230 Tx, 60-1271-12" type="DTP" id="5234278895082171104">
          <mxCell id="2493585181213164500" value="DTP 4K 230 Tx, 60-1271-12" style="rounded=0;whiteSpace=wrap;html=1;" parent="1" connectable="" edge="" vertex="1" source="" target="">
            <mxGeometry x="2300" y="4380" width="160" height="90" relative="" as="geometry"/>
          </mxCell>
        </object>
        <object label="DTP 4K 230 Tx, 60-1271-12" type="DTP" id="7490069826043699276">
          <mxCell id="6987911146445018568" value="DTP 4K 230 Tx, 60-1271-12" style="rounded=0;whiteSpace=wrap;html=1;" parent="1" connectable="" edge="" vertex="1" source="" target="">
            <mxGeometry x="2300" y="4520" width="160" height="90" relative="" as="geometry"/>
          </mxCell>
        </object>
        <object label="DTP 4K 230 Tx, 60-1271-12" type="DTP" id="7004369454962815258">
          <mxCell id="3663088699480862912" value="DTP 4K 230 Tx, 60-1271-12" style="rounded=0;whiteSpace=wrap;html=1;" parent="1" connectable="" edge="" vertex="1" source="" target="">
            <mxGeometry x="2300" y="4660" width="160" height="90" relative="" as="geometry"/>
          </mxCell>
        </object>
        <object label="75 UHD Samsung" type="DTP" id="3362217444768312706">
          <mxCell id="6224806767881491162" value="75 UHD Samsung" style="rounded=0;whiteSpace=wrap;html=1;" parent="1" connectable="" edge="" vertex="1" source="" target="">
            <mxGeometry x="2700" y="3400" width="160" height="90" relative="" as="geometry"/>
          </mxCell>
        </object>
        <object label="75 UHD Samsung" type="DTP" id="953537458953749499">
          <mxCell id="6339782655519425626" value="75 UHD Samsung" style="rounded=0;whiteSpace=wrap;html=1;" parent="1" connectable="" edge="" vertex="1" source="" target="">
            <mxGeometry x="2700" y="3540" width="160" height="90" relative="" as="geometry"/>
          </mxCell>
        </object>
        <object label="75 UHD Samsung" type="DTP" id="5634670809136071537">
          <mxCell id="5614773925084574045" value="75 UHD Samsung" style="rounded=0;whiteSpace=wrap;html=1;" parent="1" connectable="" edge="" vertex="1" source="" target="">
            <mxGeometry x="2700" y="3680" width="160" height="90" relative="" as="geometry"/>
          </mxCell>
        </object>
        <object label="75 UHD Samsung" type="DTP" id="6380089708268211756">
          <mxCell id="6838432575284830381" value="75 UHD Samsung" style="rounded=0;whiteSpace=wrap;html=1;" parent="1" connectable="" edge="" vertex="1" source="" target="">
            <mxGeometry x="2700" y="3820" width="160" height="90" relative="" as="geometry"/>
          </mxCell>
        </object>
      </root>
    </mxGraphModel>
  </diagram>
</mxfile>
